<svg xmlns="http://www.w3.org/2000/svg" viewBox="0 0 376.699 256.003">
    <path stroke="none" fill="#999" d="M212.35 203.77c-.828 0-1.5-.672-1.5-1.5v-147c0-.83.672-1.5 1.5-1.5s1.5.67 1.5 1.5v147c0 .828-.672 1.5-1.5 1.5zM223.35 201.77c-.828 0-1.5-.672-1.5-1.5v-144c0-.83.672-1.5 1.5-1.5s1.5.67 1.5 1.5v144c0 .828-.672 1.5-1.5 1.5zM280.35 192.77c-.828 0-1.5-.672-1.5-1.5v-125c0-.828.672-1.5 1.5-1.5s1.5.672 1.5 1.5v125c0 .828-.672 1.5-1.5 1.5zM273.35 194.77c-.828 0-1.5-.672-1.5-1.5v-128c0-.828.672-1.5 1.5-1.5s1.5.672 1.5 1.5v128c0 .828-.672 1.5-1.5 1.5z"/>
    <path stroke="none" fill="#999" d="M201.108 205.467c-.06 0-.12-.002-.182-.007l-.134-.01c-.06-.004-.12-.01-.18-.02l-86.027-12.55-26.604-3.94c-1.225-.183-2.132-1.234-2.132-2.474V72.096c0-1.22.878-2.26 2.078-2.465l26.682-4.55 86.245-14.51c.273-.045.55-.045.824 0L288.757 65c1.208.2 2.093 1.243 2.093 2.466v122.83c0 1.243-.912 2.297-2.142 2.475l-87.24 12.67c-.12.018-.24.027-.36.027zM90.85 184.31l24.463 3.623 85.763 12.513 84.774-12.312V69.586L201.273 55.57l-85.83 14.44-24.593 4.194V184.31z"/>
    <path stroke="none" fill="#999" d="M201.35 204.77c-1.38 0-2.5-1.12-2.5-2.5v-148c0-1.38 1.12-2.5 2.5-2.5s2.5 1.12 2.5 2.5v148c0 1.38-1.12 2.5-2.5 2.5zM250.35 197.74c-1.38 0-2.5-1.12-2.5-2.5V63.27c0-1.382 1.12-2.5 2.5-2.5s2.5 1.118 2.5 2.5v131.97c0 1.38-1.12 2.5-2.5 2.5z"/>
    <path stroke="none" fill="#999" d="M287.255 93.515c-.053 0-.105-.003-.16-.008l-85.83-9.05c-.825-.086-1.422-.824-1.336-1.648.087-.825.825-1.42 1.648-1.335l85.832 9.05c.824.086 1.42.824 1.335 1.648-.082.77-.732 1.342-1.49 1.342zM201.42 174.467c-.772 0-1.43-.592-1.494-1.376-.068-.824.545-1.55 1.37-1.618l85.832-7.152c.84-.065 1.552.545 1.62 1.37.068.826-.545 1.55-1.37 1.62l-85.832 7.152c-.043.003-.085.005-.127.005zM182.35 186.77c-.828 0-1.5-.672-1.5-1.5v-113c0-.828.672-1.5 1.5-1.5s1.5.672 1.5 1.5v113c0 .828-.672 1.5-1.5 1.5zM163.35 183.77c-.828 0-1.5-.672-1.5-1.5v-107c0-.83.672-1.5 1.5-1.5s1.5.67 1.5 1.5v107c0 .828-.672 1.5-1.5 1.5zM144.35 180.77c-.828 0-1.5-.672-1.5-1.5v-100c0-.83.672-1.5 1.5-1.5s1.5.67 1.5 1.5v100c0 .828-.672 1.5-1.5 1.5zM126.35 178.77c-.828 0-1.5-.672-1.5-1.5v-95c0-.83.672-1.5 1.5-1.5s1.5.67 1.5 1.5v95c0 .828-.672 1.5-1.5 1.5zM107.35 175.77c-.828 0-1.5-.672-1.5-1.5v-88c0-.828.672-1.5 1.5-1.5s1.5.672 1.5 1.5v88c0 .828-.672 1.5-1.5 1.5zM265.85 132.27h-31c-.828 0-1.5-.672-1.5-1.5s.672-1.5 1.5-1.5h31c.828 0 1.5.672 1.5 1.5s-.672 1.5-1.5 1.5z"/>
</svg>