<svg class="icon" height="512" viewBox="0 0 1024 1024" version="1.1" xmlns="http://www.w3.org/2000/svg">
    <path stroke="none" fill="#999999" d="M582.336 140.608a92.8 92.8 0 1 0 185.664 0.064v-0.064a92.8 92.8 0 1 0-185.664 0z m-309.568 0a92.864 92.864 0 1 0 185.792 0 92.864 92.864 0 0 0-185.792 0zM582.336 512A92.8 92.8 0 1 0 768 512a92.864 92.864 0 0 0-185.664 0z m-309.568 0c0 51.264 41.6 92.928 92.864 92.928A92.864 92.864 0 1 0 272.768 512z m309.568 371.392A92.8 92.8 0 1 0 768 883.52v-0.128a92.8 92.8 0 0 0-92.864-92.736c-51.264 0-92.8 41.472-92.8 92.736z m-309.568 0a92.864 92.864 0 1 0 185.792 0 92.864 92.864 0 0 0-185.792 0z" />
</svg>